# File created by Blade
# Date/Time:  Wed Jan 21 17:47:32 2015
# Frame Rate: 120.000 fps
#------------------------------------------------------
:FULLY-SPECIFIED
:DEGREES
712
root 13.665008 31.875843 -19.557217 -152.428277 52.476928 -208.103075
Spine 35.131252 -3.434153 22.262393
Head -17.902807 -20.017049 0.603945
LeftShoulder -9.711366 -33.751477 19.753746
LeftArm -26.447087 -5.511767 -9.633820
LeftForeArm -3.330160 -0.000000 49.756255
LeftHand -2.156795 -0.000000 53.833841
LeftHandThumb1 -26.253704 0.000000 33.147579
RightShoulder -2.824067 1.829455 -20.152751
RightArm -7.601902 42.934641 26.223030
RightForeArm -28.251699 -0.000000 45.149487
RightHand 2.742418 -0.000000 -32.379991
RightHandThumb1 -24.326973 -0.000000 -32.862282
LeftUpLeg -24.774611 1.944145 -12.181809
LeftLeg -6.014095 -0.000000 0.000000
LeftFoot -32.187492 17.611333 -22.533553
LeftToeBase 24.558861 -0.000000 -0.000000
RightUpLeg -81.122938 -24.397842 1.983088
RightLeg -5.880881 -0.000000 0.000000
RightFoot 17.364807 -33.721844 -1.256834
RightToeBase 26.136456 -0.000000 -0.000000
713
root 13.690421 31.866339 -19.558880 -152.604674 52.881128 -207.978284
Spine 35.258371 -4.114348 21.278047
Head -17.863146 -19.858621 1.246206
LeftShoulder -9.102096 -34.083080 19.729831
LeftArm -25.683465 -5.642336 -10.042091
LeftForeArm -2.744908 -0.000000 49.363795
LeftHand -2.214740 -0.000000 54.127866
LeftHandThumb1 -26.253704 0.000000 33.147579
RightShoulder -2.909738 1.635770 -19.611469
RightArm -7.800854 42.853178 26.536130
RightForeArm -28.147584 -0.000000 44.628672
RightHand 2.641856 -0.000000 -32.595727
RightHandThumb1 -24.326973 -0.000000 -32.862282
LeftUpLeg -24.564512 2.370871 -12.244181
LeftLeg -5.899894 -0.000000 0.000000
LeftFoot -32.350413 17.616065 -22.484727
LeftToeBase 24.562463 -0.000000 -0.000000
RightUpLeg -80.881850 -24.017441 1.957632
RightLeg -5.904382 -0.000000 0.000000
RightFoot 17.363077 -33.530601 -1.240908
RightToeBase 26.165074 -0.000000 -0.000000
714
root 13.716364 31.861637 -19.553173 -152.735472 53.237207 -207.868273
Spine 35.341204 -4.772860 20.324299
Head -17.810335 -19.760037 1.919016
LeftShoulder -8.376142 -34.533468 19.670979
LeftArm -25.000730 -5.769596 -10.421136
LeftForeArm -1.907121 -0.000000 48.854510
LeftHand -2.305320 -0.000000 54.492254
LeftHandThumb1 -26.253704 0.000000 33.147579
RightShoulder -2.994747 1.542619 -19.077891
RightArm -8.164413 42.682194 26.729547
RightForeArm -27.930701 0.000000 44.021122
RightHand 2.695116 0.000000 -32.766870
RightHandThumb1 -24.326973 -0.000000 -32.862282
LeftUpLeg -24.387014 2.677893 -12.254103
LeftLeg -5.837235 -0.000000 0.000000
LeftFoot -32.470510 17.692785 -22.543447
LeftToeBase 24.523894 -0.000000 -0.000000
RightUpLeg -80.705089 -23.672897 2.023519
RightLeg -5.946543 -0.000000 0.000000
RightFoot 17.344611 -33.320085 -1.164921
RightToeBase 26.165474 -0.000000 -0.000000
715
root 13.741109 31.855211 -19.550208 -152.893563 53.635877 -207.764024
Spine 35.460200 -5.392492 19.341371
Head -17.708315 -19.537239 2.592101
LeftShoulder -7.561836 -34.978677 19.580491
LeftArm -24.375929 -5.870656 -10.798929
LeftForeArm -1.399360 -0.000000 48.320010
LeftHand -2.045024 0.000000 54.797397
LeftHandThumb1 -26.253704 0.000000 33.147579
RightShoulder -3.108001 1.249612 -18.539892
RightArm -8.324198 42.751379 27.049447
RightForeArm -27.703185 -0.000000 43.348713
RightHand 2.747411 -0.000000 -32.870318
RightHandThumb1 -24.326973 -0.000000 -32.862282
LeftUpLeg -24.198472 3.072269 -12.307452
LeftLeg -5.752771 -0.000000 0.000000
LeftFoot -32.598543 17.684364 -22.585606
LeftToeBase 24.481331 -0.000000 -0.000000
RightUpLeg -80.522475 -23.296735 2.054658
RightLeg -5.963496 -0.000000 0.000000
RightFoot 17.322861 -33.139225 -1.075503
RightToeBase 26.107221 -0.000000 -0.000000
716
root 13.765669 31.848893 -19.546935 -153.039742 54.029458 -207.684523
Spine 35.559437 -6.046479 18.327686
Head -17.597171 -19.370726 3.272081
LeftShoulder -6.706671 -35.553048 19.506360
LeftArm -23.921228 -5.853203 -11.165999
LeftForeArm -0.852106 -0.000000 47.827794
LeftHand -1.903717 -0.000000 55.029767
LeftHandThumb1 -26.253704 0.000000 33.147579
RightShoulder -3.169035 1.099034 -18.050243
RightArm -8.591693 42.694562 27.337786
RightForeArm -27.366369 -0.000000 42.623763
RightHand 2.765487 -0.000000 -33.023635
RightHandThumb1 -24.326973 -0.000000 -32.862282
LeftUpLeg -24.002156 3.426188 -12.359436
LeftLeg -5.735384 -0.000000 0.000000
LeftFoot -32.703638 17.680511 -22.674965
LeftToeBase 24.498017 -0.000000 -0.000000
RightUpLeg -80.401006 -22.931644 2.119015
RightLeg -5.956443 -0.000000 0.000000
RightFoot 17.293417 -32.938097 -1.005109
RightToeBase 26.055500 -0.000000 -0.000000
717
root 13.797447 31.842493 -19.544357 -153.200065 54.369655 -207.516029
Spine 35.779146 -6.695029 17.455076
Head -17.560327 -19.275277 3.930921
LeftShoulder -5.693136 -36.196930 19.330076
LeftArm -23.526075 -5.768237 -11.565912
LeftForeArm -0.322606 0.000000 47.282893
LeftHand -1.756876 -0.000000 55.113810
LeftHandThumb1 -26.253704 0.000000 33.147579
RightShoulder -3.446577 1.246921 -17.670628
RightArm -8.766404 42.283355 27.708264
RightForeArm -26.989867 -0.000000 41.695829
RightHand 2.864127 -0.000000 -33.335735
RightHandThumb1 -24.326973 -0.000000 -32.862282
LeftUpLeg -23.701578 3.792874 -12.333829
LeftLeg -5.741397 -0.000000 0.000000
LeftFoot -32.783108 17.675011 -22.755294
LeftToeBase 24.455350 -0.000000 -0.000000
RightUpLeg -80.092143 -22.581760 2.136850
RightLeg -6.020165 -0.000000 0.000000
RightFoot 17.275432 -32.793193 -1.013646
RightToeBase 26.091028 -0.000000 -0.000000
718
root 13.825932 31.831992 -19.546480 -153.417678 54.727996 -207.441982
Spine 35.986888 -7.406789 16.417103
Head -17.443656 -19.095093 4.685133
LeftShoulder -4.905841 -36.678282 19.412666
LeftArm -23.099788 -5.880360 -12.168570
LeftForeArm 0.180965 -0.000000 46.765379
LeftHand -1.841404 0.000000 55.237505
LeftHandThumb1 -26.253704 0.000000 33.147579
RightShoulder -3.570748 1.086993 -17.173804
RightArm -8.766889 41.934178 28.037749
RightForeArm -26.342475 -0.000000 40.567062
RightHand 2.973266 -0.000000 -33.945881
RightHandThumb1 -24.326973 -0.000000 -32.862282
LeftUpLeg -23.413537 4.206931 -12.400126
LeftLeg -5.753076 -0.000000 0.000000
LeftFoot -32.844450 17.611489 -22.796364
LeftToeBase 24.462903 -0.000000 -0.000000
RightUpLeg -79.769263 -22.230877 1.965070
RightLeg -6.060569 -0.000000 0.000000
RightFoot 17.262783 -32.745792 -1.079142
RightToeBase 26.162778 -0.000000 -0.000000
719
root 13.858408 31.822502 -19.542328 -153.593240 55.210902 -207.348799
Spine 36.196369 -7.873115 15.270338
Head -17.256364 -18.948609 5.640222
LeftShoulder -3.652833 -37.183891 19.403740
LeftArm -23.117845 -5.901030 -12.655560
LeftForeArm 0.513650 0.000000 46.407426
LeftHand -1.685210 -0.000000 55.389884
LeftHandThumb1 -26.253704 0.000000 33.147579
RightShoulder -3.684479 0.714038 -16.454488
RightArm -8.714483 41.895449 28.280735
RightForeArm -25.752795 -0.000000 39.381904
RightHand 3.133289 -0.000000 -34.390689
RightHandThumb1 -24.326973 -0.000000 -32.862282
LeftUpLeg -23.140227 4.778570 -12.524846
LeftLeg -5.819473 -0.000000 0.000000
LeftFoot -32.861406 17.509421 -22.823662
LeftToeBase 24.458313 -0.000000 -0.000000
RightUpLeg -79.564311 -21.764982 1.909440
RightLeg -6.055108 -0.000000 0.000000
RightFoot 17.254746 -32.618823 -1.058165
RightToeBase 26.158226 -0.000000 -0.000000
720
root 13.886258 31.817067 -19.536108 -153.807455 55.580212 -207.370552
Spine 36.350920 -8.500994 14.137707
Head -17.100378 -18.859095 6.555175
LeftShoulder -2.744657 -38.032902 19.464021
LeftArm -22.788946 -5.662043 -13.224804
LeftForeArm 1.222528 0.000000 45.729147
LeftHand -1.585988 0.000000 55.771950
LeftHandThumb1 -26.253704 0.000000 33.147579
RightShoulder -3.850115 0.264023 -15.843222
RightArm -8.464375 41.792050 28.713615
RightForeArm -25.195585 0.000000 38.166610
RightHand 3.100027 -0.000000 -34.953576
RightHandThumb1 -24.326973 -0.000000 -32.862282
LeftUpLeg -22.890455 5.035230 -12.591573
LeftLeg -5.917013 -0.000000 0.000000
LeftFoot -32.896388 17.600096 -22.996400
LeftToeBase 24.419505 -0.000000 -0.000000
RightUpLeg -79.408054 -21.426141 1.820555
RightLeg -6.047909 -0.000000 0.000000
RightFoot 17.250690 -32.521954 -1.082481
RightToeBase 26.232623 -0.000000 -0.000000
721
root 13.911872 31.811931 -19.532440 -153.831099 55.857264 -207.035895
Spine 36.691079 -9.387465 13.420762
Head -17.245663 -18.303505 6.894279
LeftShoulder -1.987100 -38.388187 19.133500
LeftArm -21.956008 -5.623500 -13.714844
LeftForeArm 1.437719 -0.000000 44.577309
LeftHand -1.440408 -0.000000 55.850976
LeftHandThumb1 -26.253704 0.000000 33.147579
RightShoulder -4.025959 0.274593 -15.945198
RightArm -8.505129 41.569210 29.499759
RightForeArm -24.923107 0.000000 37.216161
RightHand 3.138250 -0.000000 -35.232520
RightHandThumb1 -24.326973 -0.000000 -32.862282
LeftUpLeg -22.626710 5.471935 -12.503317
LeftLeg -5.883659 -0.000000 0.000000
LeftFoot -32.994292 17.580259 -22.870570
LeftToeBase 24.499317 -0.000000 -0.000000
RightUpLeg -79.110475 -21.110169 2.029590
RightLeg -6.146560 -0.000000 0.000000
RightFoot 17.297581 -32.338254 -1.047686
RightToeBase 26.117800 -0.000000 -0.000000
722
root 13.938695 31.801948 -19.530538 -153.933358 56.196984 -206.916846
Spine 36.895512 -10.117743 12.448384
Head -17.259541 -18.221920 7.557234
LeftShoulder -1.175376 -38.951583 18.979593
LeftArm -21.326779 -5.523075 -14.270169
LeftForeArm 1.608217 -0.000000 43.640613
LeftHand -0.801456 0.000000 56.018310
LeftHandThumb1 -26.253704 0.000000 33.147579
RightShoulder -4.277070 0.015915 -15.623393
RightArm -8.210153 41.391031 30.120527
RightForeArm -24.660703 -0.000000 36.031843
RightHand 3.197075 -0.000000 -35.477670
RightHandThumb1 -24.326973 -0.000000 -32.862282
LeftUpLeg -22.387248 5.859773 -12.545273
LeftLeg -5.967030 -0.000000 0.000000
LeftFoot -33.034528 17.607242 -22.853681
LeftToeBase 24.549924 -0.000000 -0.000000
RightUpLeg -78.927623 -20.754032 1.883426
RightLeg -6.054042 -0.000000 0.000000
RightFoot 17.228234 -32.328264 -1.065835
RightToeBase 26.086062 -0.000000 -0.000000
